<svg width="302" height="60" fill="none" xmlns="http://www.w3.org/2000/svg"><g clip-path="url(#clip0_111435_445)"><path d="M4.957 0H0v35.799h4.957V22.518c0-2.247.559-4.02 1.676-5.268 1.118-1.248 2.649-1.897 4.544-1.897 1.628 0 2.989.6 4.082 1.747 1.093 1.174 1.652 2.647 1.652 4.42v14.304h4.981V21.519c0-3.295-.899-5.891-2.697-7.839-1.798-1.947-4.155-2.92-7.022-2.92-.826 0-1.652.1-2.454.324-.826.225-1.482.474-2.017.749-.534.275-1.044.574-1.506.924-.462.35-.778.599-.923.749-.146.15-.268.25-.316.324V0z" fill="#F0145A"/><path d="M32.973 0h-5.11v35.769h5.11V0zm30.138 25.294l.256-2.555c0-3.424-1.124-6.286-3.424-8.585-2.3-2.3-5.16-3.424-8.584-3.424-3.424 0-6.388 1.227-8.84 3.68-2.453 2.452-3.68 5.365-3.68 8.84 0 3.576 1.278 6.642 3.782 9.197 2.504 2.555 5.519 3.833 8.993 3.833 1.329 0 2.555-.205 3.782-.562 1.226-.41 2.248-.818 2.963-1.227.767-.46 1.533-.97 2.197-1.533.665-.562 1.125-.97 1.33-1.226.203-.256.357-.409.459-.562l-3.321-3.322-.767.971c-.51.614-1.38 1.227-2.606 1.89-1.277.665-2.606.972-4.037.972-1.992 0-3.679-.613-5.11-1.89-1.43-1.278-2.299-2.76-2.554-4.497h19.16zM51.36 15.074c1.89 0 3.423.562 4.7 1.635 1.227 1.124 1.994 2.504 2.3 4.241H44.154c.46-1.737 1.277-3.117 2.555-4.241 1.226-1.073 2.81-1.635 4.65-1.635zm35.583 19.213c0 2.248-.664 4.088-2.044 5.518-1.329 1.38-3.015 2.096-5.11 2.096-.92 0-1.84-.154-2.708-.41-.869-.255-1.533-.561-2.095-.92a11.553 11.553 0 01-1.584-1.174l-.92-.92c-.153-.153-.255-.307-.358-.409l-3.321 3.322.409.51c.255.358.715.818 1.328 1.329.613.46 1.329.97 2.146 1.482.818.46 1.84.869 3.117 1.226 1.278.358 2.606.562 3.986.562 3.475 0 6.336-1.175 8.738-3.526 2.35-2.401 3.526-5.263 3.526-8.737V11.242h-5.11v2.554l-.869-.766c-.562-.511-1.43-1.022-2.657-1.533a10.122 10.122 0 00-3.883-.767c-3.117 0-5.775 1.176-8.074 3.577-2.3 2.402-3.423 5.263-3.423 8.687 0 3.424 1.124 6.285 3.423 8.687 2.3 2.401 4.957 3.577 8.074 3.577.868 0 1.686-.102 2.554-.307a17.604 17.604 0 002.044-.766 7.622 7.622 0 001.533-.92c.46-.358.818-.613.92-.715l.358-.358v2.095zM73.146 22.994c0-2.146.665-3.934 2.044-5.416 1.38-1.482 3.015-2.249 4.855-2.249 1.84 0 3.474.767 4.854 2.249 1.329 1.482 2.044 3.27 2.044 5.416 0 2.146-.715 3.935-2.044 5.416-1.38 1.482-3.015 2.249-4.854 2.249-1.84 0-3.475-.767-4.855-2.248-1.38-1.482-2.044-3.27-2.044-5.417zm45.578 12.775v-15.84c0-2.607-.971-4.804-2.861-6.541-1.891-1.789-4.344-2.658-7.359-2.658-1.175 0-2.35.154-3.474.46-1.124.358-2.044.716-2.708 1.125-.665.408-1.329.868-1.942 1.43-.613.511-.971.869-1.175 1.073-.154.205-.307.358-.41.511l3.322 3.322.664-.869c.409-.562 1.125-1.073 2.198-1.635s2.248-.818 3.525-.818c1.482 0 2.709.46 3.68 1.329.97.869 1.43 1.993 1.43 3.27l-8.942 1.533c-2.197.358-3.986 1.227-5.212 2.606-1.277 1.38-1.942 3.066-1.942 5.059 0 1.89.818 3.526 2.453 4.956 1.686 1.482 3.73 2.198 6.234 2.198.869 0 1.686-.102 2.504-.358.869-.204 1.533-.46 2.095-.715a7.628 7.628 0 001.533-.92c.46-.358.766-.613.971-.715.153-.154.255-.307.306-.358v2.555h5.11zm-11.752-4.088c-1.329 0-2.402-.307-3.169-.92-.817-.613-1.175-1.328-1.175-2.146 0-.869.256-1.635.818-2.197.562-.562 1.328-.971 2.248-1.124l7.92-1.278v.511c0 2.3-.562 4.037-1.737 5.314-1.175 1.227-2.81 1.84-4.905 1.84zM130 0h-5.11v35.769H130V0zM0 53.118h1.6v5.607h3.464v1.303H0v-6.91zm15.502 5.43h-3.209l-.612 1.48h-1.638l3.08-6.91h1.579l3.09 6.91h-1.678l-.612-1.48zm-.504-1.215l-1.095-2.645-1.096 2.645h2.191zm18.514-4.215l-2.26 6.91h-1.718l-1.52-4.679-1.57 4.68h-1.707l-2.27-6.91h1.658l1.56 4.856 1.628-4.857h1.48l1.58 4.897 1.61-4.897h1.53zm17.011 7.029a4.033 4.033 0 01-1.915-.454 3.518 3.518 0 01-1.342-1.274 3.562 3.562 0 01-.484-1.846c0-.684.161-1.296.484-1.836.329-.546.776-.97 1.342-1.273.573-.31 1.214-.464 1.925-.464.599 0 1.139.105 1.619.316.487.21.895.513 1.224.908l-1.027.948c-.467-.54-1.046-.81-1.737-.81-.428 0-.81.096-1.145.286a2 2 0 00-.79.78 2.34 2.34 0 00-.276 1.145c0 .428.092.81.276 1.145.191.336.454.6.79.79a2.34 2.34 0 001.145.277c.691 0 1.27-.273 1.737-.82l1.027.948a3.2 3.2 0 01-1.224.918c-.487.21-1.03.316-1.629.316zm12.07 0a4.064 4.064 0 01-1.944-.464 3.5 3.5 0 01-1.353-1.273 3.543 3.543 0 01-.483-1.837c0-.677.16-1.286.483-1.826a3.48 3.48 0 011.353-1.283c.579-.31 1.227-.464 1.944-.464.718 0 1.362.155 1.935.464a3.476 3.476 0 011.846 3.11c0 .677-.164 1.29-.494 1.836a3.5 3.5 0 01-1.352 1.273c-.573.31-1.217.464-1.935.464zm0-1.362c.408 0 .777-.093 1.106-.277a2.02 2.02 0 00.77-.79c.19-.335.286-.717.286-1.145 0-.427-.095-.809-.286-1.145a1.951 1.951 0 00-.77-.78 2.164 2.164 0 00-1.106-.286c-.408 0-.776.096-1.105.286a2.019 2.019 0 00-.78.78 2.34 2.34 0 00-.276 1.145c0 .428.092.81.276 1.145.19.336.45.6.78.79.329.184.697.277 1.105.277zM78.8 60.028l-.01-4.146-2.034 3.416h-.72l-2.024-3.327v4.057h-1.5v-6.91h1.322l2.587 4.294 2.546-4.294h1.313l.02 6.91h-1.5zm11.066-6.91c.612 0 1.142.102 1.59.306.453.205.802.494 1.046.87.243.374.365.819.365 1.332 0 .507-.122.95-.365 1.332-.244.376-.593.665-1.047.87-.447.197-.977.295-1.59.295h-1.39v1.905h-1.6v-6.91h2.99zm-.089 3.702c.48 0 .846-.102 1.096-.306.25-.21.375-.507.375-.888 0-.389-.125-.685-.375-.889-.25-.21-.616-.316-1.096-.316h-1.303v2.4h1.303zm13.371 1.728H99.94l-.612 1.48h-1.64l3.081-6.91h1.579l3.09 6.91h-1.678l-.612-1.48zm-.504-1.215l-1.095-2.645-1.096 2.645h2.191zm14.784-4.215v6.91h-1.313l-3.445-4.195v4.195h-1.58v-6.91h1.323l3.435 4.196v-4.196h1.58zm9.887 4.462v2.448h-1.599V57.56l-2.675-4.442h1.698l1.846 3.07 1.845-3.07H130l-2.685 4.462z" fill="#fff"/><path fill-rule="evenodd" clip-rule="evenodd" d="M149.175 0H155l-15.175 47H134l15.175-47z" fill="#F0145A"/><path d="M167.64 35.18a15.09 15.09 0 01-4.428-.648c-1.392-.456-2.484-1.02-3.276-1.692l1.152-2.016c.792.624 1.788 1.14 2.988 1.548 1.2.384 2.448.576 3.744.576 1.728 0 3-.264 3.816-.792.84-.552 1.26-1.32 1.26-2.304 0-.696-.228-1.236-.684-1.62-.456-.408-1.032-.708-1.728-.9-.696-.216-1.62-.42-2.772-.612-1.536-.288-2.772-.576-3.708-.864a5.725 5.725 0 01-2.412-1.548c-.648-.72-.972-1.716-.972-2.988 0-1.584.66-2.88 1.98-3.888 1.32-1.008 3.156-1.512 5.508-1.512 1.224 0 2.448.168 3.672.504 1.224.312 2.232.732 3.024 1.26l-1.116 2.052c-1.56-1.08-3.42-1.62-5.58-1.62-1.632 0-2.868.288-3.708.864-.816.576-1.224 1.332-1.224 2.268 0 .72.228 1.296.684 1.728.48.432 1.068.756 1.764.972.696.192 1.656.396 2.88.612 1.512.288 2.724.576 3.636.864.912.288 1.692.78 2.34 1.476.648.696.972 1.656.972 2.88 0 1.656-.696 2.976-2.088 3.96-1.368.96-3.276 1.44-5.724 1.44zm29.025-8.856h-15.84c.144 1.968.9 3.564 2.268 4.788 1.368 1.2 3.096 1.8 5.184 1.8 1.176 0 2.256-.204 3.24-.612a7.27 7.27 0 002.556-1.872l1.44 1.656c-.84 1.008-1.896 1.776-3.168 2.304-1.248.528-2.628.792-4.14.792-1.944 0-3.672-.408-5.184-1.224a9.115 9.115 0 01-3.492-3.456c-.84-1.464-1.26-3.12-1.26-4.968 0-1.848.396-3.504 1.188-4.968.816-1.464 1.92-2.604 3.312-3.42 1.416-.816 3-1.224 4.752-1.224 1.752 0 3.324.408 4.716 1.224 1.392.816 2.484 1.956 3.276 3.42.792 1.44 1.188 3.096 1.188 4.968l-.036.792zm-9.144-8.208c-1.824 0-3.36.588-4.608 1.764-1.224 1.152-1.92 2.664-2.088 4.536h13.428c-.168-1.872-.876-3.384-2.124-4.536-1.224-1.176-2.76-1.764-4.608-1.764zm16.831 1.656c.6-1.272 1.488-2.232 2.664-2.88 1.2-.648 2.676-.972 4.428-.972v2.484l-.612-.036c-1.992 0-3.552.612-4.68 1.836-1.128 1.224-1.692 2.94-1.692 5.148V35h-2.556V16.064h2.448v3.708zm28.44-3.708L224.368 35h-2.628l-8.388-18.936h2.664l7.092 16.128 7.164-16.128h2.52zm3.6 0h2.556V35h-2.556V16.064zm1.296-4.14a1.81 1.81 0 01-1.332-.54c-.36-.36-.54-.792-.54-1.296 0-.48.18-.9.54-1.26.36-.36.804-.54 1.332-.54s.972.18 1.332.54c.36.336.54.744.54 1.224 0 .528-.18.972-.54 1.332-.36.36-.804.54-1.332.54zm16.22 23.256c-1.872 0-3.552-.408-5.04-1.224a8.929 8.929 0 01-3.456-3.42c-.84-1.488-1.26-3.156-1.26-5.004 0-1.848.42-3.504 1.26-4.968a8.929 8.929 0 013.456-3.42c1.488-.816 3.168-1.224 5.04-1.224 1.632 0 3.084.324 4.356.972a7.123 7.123 0 013.06 2.772l-1.908 1.296c-.624-.936-1.416-1.632-2.376-2.088a6.905 6.905 0 00-3.132-.72c-1.368 0-2.604.312-3.708.936-1.08.6-1.932 1.464-2.556 2.592-.6 1.128-.9 2.412-.9 3.852 0 1.464.3 2.76.9 3.888a6.8 6.8 0 002.556 2.592c1.104.6 2.34.9 3.708.9 1.128 0 2.172-.228 3.132-.684.96-.456 1.752-1.152 2.376-2.088l1.908 1.296a7.358 7.358 0 01-3.06 2.808c-1.296.624-2.748.936-4.356.936zm28.609-8.856h-15.84c.144 1.968.9 3.564 2.268 4.788 1.368 1.2 3.096 1.8 5.184 1.8 1.176 0 2.256-.204 3.24-.612a7.27 7.27 0 002.556-1.872l1.44 1.656c-.84 1.008-1.896 1.776-3.168 2.304-1.248.528-2.628.792-4.14.792-1.944 0-3.672-.408-5.184-1.224a9.115 9.115 0 01-3.492-3.456c-.84-1.464-1.26-3.12-1.26-4.968 0-1.848.396-3.504 1.188-4.968.816-1.464 1.92-2.604 3.312-3.42 1.416-.816 3-1.224 4.752-1.224 1.752 0 3.324.408 4.716 1.224 1.392.816 2.484 1.956 3.276 3.42.792 1.44 1.188 3.096 1.188 4.968l-.036.792zm-9.144-8.208c-1.824 0-3.36.588-4.608 1.764-1.224 1.152-1.92 2.664-2.088 4.536h13.428c-.168-1.872-.876-3.384-2.124-4.536-1.224-1.176-2.76-1.764-4.608-1.764zm19.458 17.064a15.09 15.09 0 01-4.428-.648c-1.392-.456-2.484-1.02-3.276-1.692l1.152-2.016c.792.624 1.788 1.14 2.988 1.548 1.2.384 2.448.576 3.744.576 1.728 0 3-.264 3.816-.792.84-.552 1.26-1.32 1.26-2.304 0-.696-.228-1.236-.684-1.62-.456-.408-1.032-.708-1.728-.9-.696-.216-1.62-.42-2.772-.612-1.536-.288-2.772-.576-3.708-.864a5.725 5.725 0 01-2.412-1.548c-.648-.72-.972-1.716-.972-2.988 0-1.584.66-2.88 1.98-3.888 1.32-1.008 3.156-1.512 5.508-1.512 1.224 0 2.448.168 3.672.504 1.224.312 2.232.732 3.024 1.26l-1.116 2.052c-1.56-1.08-3.42-1.62-5.58-1.62-1.632 0-2.868.288-3.708.864-.816.576-1.224 1.332-1.224 2.268 0 .72.228 1.296.684 1.728.48.432 1.068.756 1.764.972.696.192 1.656.396 2.88.612 1.512.288 2.724.576 3.636.864.912.288 1.692.78 2.34 1.476.648.696.972 1.656.972 2.88 0 1.656-.696 2.976-2.088 3.96-1.368.96-3.276 1.44-5.724 1.44z" fill="#fff"/></g><defs><clipPath id="clip0_111435_445"><path fill="#fff" d="M0 0h302v60H0z"/></clipPath></defs></svg>