<svg width="142" height="57" fill="none" xmlns="http://www.w3.org/2000/svg"><g clip-path="url(#clip0_110749_2399)"><path d="M2.644 15H0v19.093h2.644v-7.084c0-1.198.298-2.143.894-2.809.596-.665 1.412-1.012 2.423-1.012.868 0 1.594.32 2.177.932.583.626.881 1.412.881 2.357v7.629h2.657v-7.63c0-1.757-.48-3.141-1.439-4.18-.959-1.038-2.216-1.558-3.745-1.558-.44 0-.88.054-1.308.174-.441.12-.791.253-1.076.399a5.459 5.459 0 00-.804.493 5.41 5.41 0 00-.492.4c-.078.079-.142.132-.168.172V15z" fill="#F0145A"/><path d="M17.586 15H14.86v19.077h2.726V15zM33.66 28.49l.136-1.363c0-1.826-.6-3.352-1.826-4.578-1.226-1.227-2.752-1.826-4.578-1.826-1.826 0-3.407.654-4.715 1.962-1.308 1.308-1.962 2.862-1.962 4.715 0 1.907.681 3.543 2.017 4.905 1.335 1.363 2.943 2.044 4.796 2.044.709 0 1.363-.109 2.017-.3.654-.218 1.199-.436 1.58-.654a8.975 8.975 0 001.172-.817c.354-.3.6-.518.709-.655.109-.136.19-.217.245-.3l-1.771-1.77-.41.517c-.272.327-.735.654-1.39 1.008a4.563 4.563 0 01-2.152.518c-1.063 0-1.962-.327-2.725-1.008-.763-.681-1.227-1.472-1.363-2.398h10.22zm-6.268-5.45c1.008 0 1.826.299 2.507.871.654.6 1.063 1.336 1.226 2.262H23.55c.245-.926.681-1.662 1.363-2.262.654-.572 1.499-.872 2.48-.872zM46.37 33.286c0 1.2-.355 2.18-1.09 2.943-.71.736-1.608 1.118-2.726 1.118-.49 0-.98-.082-1.444-.218a4.286 4.286 0 01-1.117-.49 6.164 6.164 0 01-.845-.628c-.246-.245-.41-.408-.49-.49-.083-.082-.137-.164-.192-.218l-1.771 1.771.218.273c.136.19.382.436.709.708.327.246.708.518 1.144.79.436.246.981.464 1.663.655.68.19 1.39.3 2.125.3 1.853 0 3.38-.627 4.66-1.88 1.254-1.282 1.88-2.808 1.88-4.661V20.995H46.37v1.363l-.464-.409c-.3-.272-.763-.545-1.417-.817a5.396 5.396 0 00-2.071-.41c-1.663 0-3.08.628-4.306 1.909-1.226 1.28-1.826 2.806-1.826 4.632 0 1.826.6 3.352 1.826 4.633 1.226 1.281 2.643 1.908 4.306 1.908.463 0 .9-.055 1.363-.164.436-.136.79-.272 1.09-.408.3-.137.572-.3.817-.49.245-.192.436-.328.49-.382l.192-.191v1.117zm-7.359-6.023c0-1.144.355-2.098 1.09-2.888.736-.79 1.608-1.2 2.59-1.2.98 0 1.853.41 2.588 1.2.709.79 1.09 1.744 1.09 2.888 0 1.145-.381 2.099-1.09 2.89-.735.79-1.608 1.198-2.589 1.198-.98 0-1.853-.409-2.588-1.199-.736-.79-1.09-1.744-1.09-2.889zm24.309 6.814v-8.449c0-1.39-.518-2.561-1.527-3.488-1.008-.954-2.316-1.417-3.924-1.417-.627 0-1.254.082-1.853.245-.6.19-1.09.382-1.444.6a6.737 6.737 0 00-1.036.763 8.628 8.628 0 00-.627.572c-.082.109-.163.19-.218.273l1.771 1.77.355-.462c.218-.3.6-.573 1.172-.873.572-.3 1.199-.436 1.88-.436.79 0 1.444.246 1.962.71.518.462.763 1.062.763 1.743l-4.769.818c-1.172.19-2.126.654-2.78 1.39-.681.736-1.035 1.635-1.035 2.698 0 1.008.436 1.88 1.308 2.643.9.79 1.99 1.172 3.325 1.172.463 0 .899-.054 1.335-.19a5.873 5.873 0 001.117-.382c.3-.136.573-.3.818-.49.245-.192.409-.328.518-.382.082-.082.136-.164.163-.191v1.363h2.725zm-6.269-2.18c-.708 0-1.28-.164-1.69-.491-.435-.327-.626-.709-.626-1.145 0-.463.136-.872.436-1.172.3-.3.709-.517 1.2-.6l4.223-.68v.272c0 1.226-.3 2.153-.926 2.834-.627.654-1.5.981-2.617.981zM69.334 15h-2.726v19.077h2.726V15zM0 43.33h.853v2.99H2.7v.695H0V43.33zm8.268 2.895H6.556l-.326.79h-.874L7 43.33h.842l1.648 3.685h-.895l-.326-.79zm-.269-.647l-.584-1.411-.585 1.41H8zm9.874-2.248l-1.206 3.685h-.916l-.81-2.495-.837 2.495h-.911l-1.211-3.685h.884l.832 2.59.869-2.59h.79l.842 2.611.858-2.611h.816zm9.073 3.748a2.15 2.15 0 01-1.022-.242 1.875 1.875 0 01-.716-.679 1.9 1.9 0 01-.258-.984 1.825 1.825 0 01.974-1.658 2.124 2.124 0 011.027-.248c.32 0 .607.056.863.168.26.112.478.274.653.484l-.547.506a1.177 1.177 0 00-.927-.432c-.228 0-.432.051-.61.153-.18.098-.32.237-.422.416a1.247 1.247 0 00-.147.61c0 .229.049.432.147.611.102.18.242.32.421.421.18.099.383.148.611.148.369 0 .678-.146.927-.437l.547.505a1.707 1.707 0 01-.653.49c-.26.112-.549.168-.868.168zm6.437 0c-.383 0-.728-.082-1.037-.247a1.867 1.867 0 01-.721-.68 1.89 1.89 0 01-.258-.979c0-.361.086-.686.258-.973.175-.292.416-.52.72-.685a2.166 2.166 0 011.038-.247c.383 0 .727.082 1.032.247a1.855 1.855 0 01.985 1.658c0 .362-.088.688-.264.98a1.867 1.867 0 01-.721.679c-.305.165-.65.247-1.032.247zm0-.726c.218 0 .414-.05.59-.148.175-.101.312-.242.41-.42.102-.18.153-.383.153-.611a1.2 1.2 0 00-.153-.611 1.04 1.04 0 00-.41-.416 1.153 1.153 0 00-.59-.153c-.218 0-.414.051-.59.153a1.077 1.077 0 00-.416.416 1.249 1.249 0 00-.147.61c0 .229.05.432.148.611.101.18.24.32.415.421.176.099.373.148.59.148zm8.643.663l-.005-2.211-1.084 1.822h-.385l-1.079-1.775v2.164h-.8V43.33h.705l1.38 2.29 1.358-2.29h.7l.01 3.685h-.8zm5.902-3.685c.327 0 .61.054.848.163.242.109.428.263.558.463.13.2.195.437.195.711 0 .27-.065.507-.195.71-.13.2-.316.355-.558.464a2.088 2.088 0 01-.848.158h-.742v1.016h-.853V43.33h1.596zm-.047 1.974c.256 0 .451-.054.584-.163.134-.112.2-.27.2-.474 0-.207-.066-.365-.2-.474-.133-.112-.328-.168-.584-.168h-.695v1.28h.695zm7.131.921h-1.71l-.327.79H52.1l1.642-3.685h.843l1.648 3.685h-.895l-.327-.79zm-.268-.647l-.585-1.411-.584 1.41h1.169zm7.884-2.248v3.685h-.7l-1.837-2.237v2.237h-.843V43.33h.706l1.832 2.237V43.33h.842zm5.273 2.38v1.305h-.852V45.7l-1.427-2.37h.905l.985 1.638.984-1.637h.837l-1.432 2.38z" fill="#323264"/><path fill-rule="evenodd" clip-rule="evenodd" d="M81.728 15h3.223l-8.395 26h-3.222l8.394-26z" fill="#F0145A"/><path d="M96.47 33.36c-.266.24-.6.427-1 .56-.386.12-.793.18-1.22.18-.987 0-1.746-.267-2.28-.8-.533-.533-.8-1.287-.8-2.26v-6.36h-1.88v-1.2h1.88v-2.3h1.42v2.3h3.2v1.2h-3.2v6.28c0 .627.153 1.107.46 1.44.32.32.773.48 1.36.48.294 0 .574-.047.84-.14.28-.093.52-.227.72-.4l.5 1.02zm11.374-4.18h-8.8c.08 1.093.5 1.98 1.26 2.66.76.667 1.72 1 2.88 1a4.65 4.65 0 001.8-.34 4.037 4.037 0 001.42-1.04l.8.92a4.49 4.49 0 01-1.76 1.28c-.693.293-1.46.44-2.3.44-1.08 0-2.04-.227-2.88-.68a5.065 5.065 0 01-1.94-1.92c-.467-.813-.7-1.733-.7-2.76 0-1.027.22-1.947.66-2.76a4.945 4.945 0 011.84-1.9c.787-.453 1.667-.68 2.64-.68.973 0 1.847.227 2.62.68a4.805 4.805 0 011.82 1.9c.44.8.66 1.72.66 2.76l-.02.44zm-5.08-4.56c-1.013 0-1.867.327-2.56.98-.68.64-1.067 1.48-1.16 2.52h7.46c-.093-1.04-.487-1.88-1.18-2.52-.68-.653-1.533-.98-2.56-.98zm11.377-1.22c1.374 0 2.427.347 3.16 1.04.734.68 1.1 1.693 1.1 3.04V34h-1.36v-1.64c-.32.547-.793.973-1.42 1.28-.613.307-1.346.46-2.2.46-1.173 0-2.106-.28-2.8-.84-.693-.56-1.04-1.3-1.04-2.22 0-.893.32-1.613.96-2.16.654-.547 1.687-.82 3.1-.82h3.34v-.64c0-.907-.253-1.593-.76-2.06-.506-.48-1.246-.72-2.22-.72a5.5 5.5 0 00-1.92.34 4.705 4.705 0 00-1.58.9l-.64-1.06c.534-.453 1.174-.8 1.92-1.04a7.3 7.3 0 012.36-.38zm-.5 9.58c.8 0 1.487-.18 2.06-.54.574-.373 1-.907 1.28-1.6v-1.72h-3.3c-1.8 0-2.7.627-2.7 1.88 0 .613.234 1.1.7 1.46.467.347 1.12.52 1.96.52zm21.737-9.58c1.32 0 2.354.38 3.1 1.14.76.76 1.14 1.88 1.14 3.36V34h-1.42v-5.96c0-1.093-.266-1.927-.8-2.5-.52-.573-1.26-.86-2.22-.86-1.093 0-1.953.34-2.58 1.02-.626.667-.94 1.593-.94 2.78V34h-1.42v-5.96c0-1.093-.266-1.927-.8-2.5-.52-.573-1.266-.86-2.24-.86-1.08 0-1.94.34-2.58 1.02-.626.667-.94 1.593-.94 2.78V34h-1.42V23.48h1.36v1.92a3.803 3.803 0 011.56-1.48c.667-.347 1.434-.52 2.3-.52.88 0 1.64.187 2.28.56.654.373 1.14.927 1.46 1.66a4.052 4.052 0 011.66-1.62c.734-.4 1.567-.6 2.5-.6z" fill="#323264"/></g><defs><clipPath id="clip0_110749_2399"><path fill="#fff" d="M0 0h141.95v57H0z"/></clipPath></defs></svg>