<svg width="177" height="57" fill="none" xmlns="http://www.w3.org/2000/svg"><g clip-path="url(#clip0_110512_1979)"><path d="M2.644 15H0v19.093h2.644v-7.084c0-1.198.298-2.143.894-2.809.596-.666 1.412-1.012 2.423-1.012.868 0 1.594.32 2.177.932.583.626.881 1.412.881 2.357v7.629h2.657v-7.63c0-1.757-.48-3.141-1.439-4.18-.959-1.038-2.216-1.558-3.745-1.558-.44 0-.88.054-1.308.174-.441.12-.791.253-1.076.399a5.46 5.46 0 00-.804.493 5.57 5.57 0 00-.492.399c-.078.08-.142.133-.168.173V15z" fill="#F0145A"/><path d="M17.586 15H14.86v19.077h2.726V15zM33.66 28.49l.136-1.363c0-1.826-.6-3.352-1.826-4.578-1.226-1.226-2.752-1.826-4.578-1.826-1.826 0-3.407.654-4.715 1.962-1.308 1.308-1.962 2.862-1.962 4.715 0 1.907.681 3.543 2.017 4.905 1.335 1.363 2.943 2.044 4.796 2.044.709 0 1.363-.109 2.017-.3.654-.218 1.199-.436 1.58-.654a8.975 8.975 0 001.172-.817c.354-.3.6-.518.709-.654.109-.137.19-.218.245-.3l-1.771-1.771-.41.517c-.272.327-.735.654-1.39 1.009a4.563 4.563 0 01-2.152.517c-1.063 0-1.962-.327-2.725-1.008-.763-.681-1.227-1.472-1.363-2.398h10.22zm-6.268-5.45c1.008 0 1.826.3 2.507.871.654.6 1.063 1.336 1.226 2.262H23.55c.245-.926.681-1.662 1.363-2.262.654-.572 1.499-.872 2.48-.872zM46.37 33.286c0 1.2-.355 2.18-1.09 2.944-.71.735-1.608 1.117-2.726 1.117-.49 0-.98-.082-1.444-.218a4.286 4.286 0 01-1.117-.49 6.083 6.083 0 01-.845-.628c-.246-.245-.41-.408-.49-.49-.083-.082-.137-.163-.192-.218l-1.771 1.771.218.273c.136.19.382.436.709.709.327.245.708.517 1.144.79.436.245.981.463 1.663.654.68.19 1.39.3 2.125.3 1.853 0 3.38-.627 4.66-1.88 1.254-1.282 1.88-2.808 1.88-4.661V20.995H46.37v1.363l-.464-.409c-.3-.272-.763-.545-1.417-.817a5.398 5.398 0 00-2.071-.41c-1.663 0-3.08.628-4.306 1.909-1.226 1.28-1.826 2.807-1.826 4.633 0 1.825.6 3.352 1.826 4.632 1.226 1.281 2.643 1.908 4.306 1.908.463 0 .9-.054 1.363-.163.436-.137.79-.273 1.09-.41.3-.136.572-.299.817-.49.245-.19.436-.327.49-.381l.192-.191v1.117zm-7.359-6.023c0-1.144.355-2.098 1.09-2.888.736-.79 1.608-1.2 2.59-1.2.98 0 1.853.41 2.588 1.2.709.79 1.09 1.744 1.09 2.889 0 1.144-.381 2.098-1.09 2.888-.735.79-1.608 1.2-2.589 1.2-.98 0-1.853-.41-2.588-1.2-.736-.79-1.09-1.744-1.09-2.889zm24.309 6.814v-8.449c0-1.39-.518-2.561-1.527-3.488-1.008-.954-2.316-1.417-3.924-1.417-.627 0-1.254.082-1.853.245-.6.19-1.09.382-1.444.6a6.737 6.737 0 00-1.036.763 8.628 8.628 0 00-.627.572c-.082.11-.163.19-.218.273l1.771 1.771.355-.463c.218-.3.6-.573 1.172-.872.572-.3 1.199-.436 1.88-.436.79 0 1.444.245 1.962.708.518.463.763 1.063.763 1.744l-4.769.818c-1.172.19-2.126.654-2.78 1.39-.681.736-1.035 1.635-1.035 2.698 0 1.008.436 1.88 1.308 2.643.9.79 1.99 1.172 3.325 1.172a4.4 4.4 0 001.335-.19 5.872 5.872 0 001.117-.382c.3-.136.573-.3.818-.49.245-.191.409-.328.518-.382.082-.082.136-.164.163-.191v1.363h2.725zm-6.269-2.18c-.708 0-1.28-.164-1.69-.491-.435-.327-.626-.709-.626-1.145 0-.463.136-.872.436-1.172.3-.3.709-.517 1.2-.6l4.223-.68v.272c0 1.226-.3 2.153-.926 2.834-.627.654-1.5.981-2.617.981zM69.334 15h-2.726v19.077h2.726V15zM0 43.33h.853v2.99H2.7v.695H0V43.33zm8.268 2.895H6.556l-.326.79h-.874L7 43.33h.842l1.648 3.685h-.895l-.326-.79zm-.269-.647l-.584-1.411-.585 1.41H8zm9.874-2.248l-1.206 3.685h-.916l-.81-2.495-.837 2.495h-.911l-1.211-3.685h.884l.832 2.59.869-2.59h.79l.842 2.611.858-2.611h.816zm9.073 3.748c-.376 0-.716-.08-1.022-.242a1.876 1.876 0 01-.716-.68 1.9 1.9 0 01-.258-.984 1.825 1.825 0 01.974-1.658 2.125 2.125 0 011.027-.247c.32 0 .607.056.863.168.26.112.478.274.653.484l-.547.506a1.177 1.177 0 00-.927-.432c-.228 0-.432.051-.61.153-.18.098-.32.237-.422.416a1.248 1.248 0 00-.147.61c0 .229.049.432.147.611.102.18.242.32.421.421.18.099.383.148.611.148.369 0 .678-.146.927-.437l.547.505a1.708 1.708 0 01-.653.49c-.26.112-.549.168-.868.168zm6.437 0c-.383 0-.728-.082-1.037-.247a1.867 1.867 0 01-.721-.68 1.89 1.89 0 01-.258-.979c0-.361.086-.686.258-.973.175-.292.416-.52.72-.685a2.167 2.167 0 011.038-.247c.383 0 .727.082 1.032.247a1.854 1.854 0 01.985 1.658c0 .362-.088.688-.264.98a1.867 1.867 0 01-.721.679c-.305.165-.65.247-1.032.247zm0-.726c.218 0 .414-.05.59-.148.175-.102.312-.242.41-.42.102-.18.153-.383.153-.612a1.2 1.2 0 00-.153-.61 1.041 1.041 0 00-.41-.416 1.153 1.153 0 00-.59-.153c-.218 0-.414.051-.59.153a1.077 1.077 0 00-.416.416 1.249 1.249 0 00-.147.61c0 .229.05.432.148.611.101.18.24.32.415.421.176.099.373.148.59.148zm8.643.663l-.005-2.211-1.084 1.822h-.385l-1.079-1.775v2.164h-.8V43.33h.705l1.38 2.29 1.358-2.29h.7l.01 3.685h-.8zm5.902-3.685c.327 0 .61.054.848.163.242.109.428.263.558.463.13.2.195.437.195.711 0 .27-.065.507-.195.71-.13.2-.316.355-.558.464a2.088 2.088 0 01-.848.158h-.742v1.016h-.853V43.33h1.596zm-.047 1.974c.256 0 .451-.054.584-.163.134-.112.2-.27.2-.474 0-.207-.066-.365-.2-.474-.133-.112-.328-.168-.584-.168h-.695v1.279h.695zm7.131.921h-1.71l-.327.79H52.1l1.642-3.685h.843l1.648 3.685h-.895l-.327-.79zm-.268-.647l-.585-1.411-.584 1.41h1.169zm7.884-2.248v3.685h-.7l-1.837-2.237v2.237h-.843V43.33h.706l1.832 2.237V43.33h.842zm5.273 2.38v1.305h-.852V45.7l-1.427-2.37h.905l.985 1.638.984-1.637h.837l-1.432 2.38z" fill="#323264"/><path fill-rule="evenodd" clip-rule="evenodd" d="M81.728 15h3.223l-8.395 26h-3.222l8.394-26z" fill="#F0145A"/><path d="M94.61 23.4c1.374 0 2.427.347 3.16 1.04.734.68 1.1 1.693 1.1 3.04V34h-1.36v-1.64c-.32.547-.793.973-1.42 1.28-.613.307-1.347.46-2.2.46-1.173 0-2.106-.28-2.8-.84-.693-.56-1.04-1.3-1.04-2.22 0-.893.32-1.613.96-2.16.653-.547 1.687-.82 3.1-.82h3.34v-.64c0-.907-.253-1.593-.76-2.06-.507-.48-1.246-.72-2.22-.72-.666 0-1.306.113-1.92.34a4.702 4.702 0 00-1.58.9l-.64-1.06c.534-.453 1.174-.8 1.92-1.04a7.296 7.296 0 012.36-.38zm-.5 9.58c.8 0 1.487-.18 2.06-.54.573-.373 1-.907 1.28-1.6v-1.72h-3.3c-1.8 0-2.7.627-2.7 1.88 0 .613.233 1.1.7 1.46.467.347 1.12.52 1.96.52zm14.037-9.58c.987 0 1.88.227 2.68.68.8.44 1.427 1.067 1.88 1.88.453.813.68 1.74.68 2.78 0 1.04-.227 1.967-.68 2.78a4.858 4.858 0 01-1.88 1.9c-.8.453-1.693.68-2.68.68-.88 0-1.673-.187-2.38-.56a4.355 4.355 0 01-1.68-1.62V34h-1.36V19.16h1.42v6.32c.44-.68 1-1.193 1.68-1.54.693-.36 1.467-.54 2.32-.54zm-.1 9.44c.733 0 1.4-.167 2-.5a3.601 3.601 0 001.4-1.46c.347-.627.52-1.34.52-2.14s-.173-1.513-.52-2.14a3.47 3.47 0 00-1.4-1.44 3.926 3.926 0 00-2-.52c-.747 0-1.42.173-2.02.52a3.64 3.64 0 00-1.4 1.44c-.333.627-.5 1.34-.5 2.14s.167 1.513.5 2.14a3.784 3.784 0 001.4 1.46c.6.333 1.273.5 2.02.5zm12.535 1.26c-1.014 0-1.927-.227-2.74-.68a5.096 5.096 0 01-1.92-1.92c-.467-.813-.7-1.733-.7-2.76 0-1.027.233-1.947.7-2.76a4.952 4.952 0 011.92-1.9c.813-.453 1.726-.68 2.74-.68 1.013 0 1.926.227 2.74.68a4.829 4.829 0 011.9 1.9c.466.813.7 1.733.7 2.76 0 1.027-.234 1.947-.7 2.76a4.968 4.968 0 01-1.9 1.92c-.814.453-1.727.68-2.74.68zm0-1.26c.746 0 1.413-.167 2-.5a3.607 3.607 0 001.4-1.46c.333-.627.5-1.34.5-2.14s-.167-1.513-.5-2.14a3.476 3.476 0 00-1.4-1.44c-.587-.347-1.254-.52-2-.52-.747 0-1.42.173-2.02.52a3.633 3.633 0 00-1.4 1.44c-.334.627-.5 1.34-.5 2.14s.166 1.513.5 2.14a3.777 3.777 0 001.4 1.46c.6.333 1.273.5 2.02.5zm17.719-9.36V34h-1.36v-1.92a3.972 3.972 0 01-1.54 1.5c-.654.347-1.4.52-2.24.52-1.374 0-2.46-.38-3.26-1.14-.787-.773-1.18-1.9-1.18-3.38v-6.1h1.42v5.96c0 1.107.273 1.947.82 2.52.546.573 1.326.86 2.34.86 1.106 0 1.98-.333 2.62-1 .64-.68.96-1.62.96-2.82v-5.52h1.42zm9.517 9.88c-.267.24-.6.427-1 .56-.387.12-.793.18-1.22.18-.987 0-1.747-.267-2.28-.8-.533-.533-.8-1.287-.8-2.26v-6.36h-1.88v-1.2h1.88v-2.3h1.42v2.3h3.2v1.2h-3.2v6.28c0 .627.153 1.107.46 1.44.32.32.773.48 1.36.48.293 0 .573-.047.84-.14.28-.093.52-.227.72-.4l.5 1.02zm17.299-9.88V34h-1.36v-1.92a3.958 3.958 0 01-1.54 1.5c-.653.347-1.4.52-2.24.52-1.373 0-2.46-.38-3.26-1.14-.786-.773-1.18-1.9-1.18-3.38v-6.1h1.42v5.96c0 1.107.274 1.947.82 2.52.547.573 1.327.86 2.34.86 1.107 0 1.98-.333 2.62-1 .64-.68.96-1.62.96-2.82v-5.52h1.42zm6.797 10.62c-.853 0-1.673-.12-2.46-.36-.773-.253-1.38-.567-1.82-.94l.64-1.12c.44.347.994.633 1.66.86.667.213 1.36.32 2.08.32.96 0 1.667-.147 2.12-.44.467-.307.7-.733.7-1.28 0-.387-.126-.687-.38-.9a2.347 2.347 0 00-.96-.5c-.386-.12-.9-.233-1.54-.34-.853-.16-1.54-.32-2.06-.48a3.185 3.185 0 01-1.34-.86c-.36-.4-.54-.953-.54-1.66 0-.88.367-1.6 1.1-2.16.734-.56 1.754-.84 3.06-.84.68 0 1.36.093 2.04.28.68.173 1.24.407 1.68.7l-.62 1.14c-.866-.6-1.9-.9-3.1-.9-.906 0-1.593.16-2.06.48-.453.32-.68.74-.68 1.26 0 .4.127.72.38.96.267.24.594.42.98.54.387.107.92.22 1.6.34.84.16 1.514.32 2.02.48.507.16.94.433 1.3.82.36.387.54.92.54 1.6 0 .92-.386 1.653-1.16 2.2-.76.533-1.82.8-3.18.8z" fill="#323264"/></g><defs><clipPath id="clip0_110512_1979"><path fill="#fff" d="M0 0h176.95v57H0z"/></clipPath></defs></svg>