<svg width="142" height="57" viewBox="0 0 142 57" fill="none" xmlns="http://www.w3.org/2000/svg">
<g clip-path="url(#clip0_110749_2399)">
<path d="M2.64358 15.0001H0V34.0926H2.64358V27.0095C2.64358 25.8112 2.94163 24.8659 3.53774 24.2002C4.13384 23.5345 4.95024 23.1883 5.96102 23.1883C6.82926 23.1883 7.55495 23.5078 8.13809 24.1203C8.72123 24.7461 9.01929 25.5316 9.01929 26.4769V34.106H11.6758V26.4769C11.6758 24.7194 11.1964 23.3348 10.2374 22.2963C9.27846 21.2577 8.02146 20.7385 6.49233 20.7385C6.05173 20.7385 5.61114 20.7917 5.1835 20.9116C4.7429 21.0314 4.39301 21.1645 4.10792 21.311C3.82283 21.4575 3.5507 21.6172 3.30448 21.8036C3.05826 21.99 2.8898 22.1232 2.81205 22.2031C2.73429 22.2829 2.6695 22.3362 2.64358 22.3761V15.0001Z" fill="#F0145A"/>
<path d="M17.5856 15H14.8604V34.0767H17.5856V15Z" fill="#323264"/>
<path d="M33.6598 28.4897L33.796 27.1271C33.796 25.3012 33.1965 23.7751 31.9701 22.5487C30.7438 21.3223 29.2176 20.7228 27.3917 20.7228C25.5658 20.7228 23.9851 21.3768 22.677 22.685C21.3689 23.9931 20.7148 25.5465 20.7148 27.3996C20.7148 29.3073 21.3962 30.9425 22.7315 32.3051C24.0669 33.6677 25.6748 34.349 27.528 34.349C28.2365 34.349 28.8906 34.24 29.5446 34.0492C30.1987 33.8312 30.7438 33.6132 31.1253 33.3952C31.5341 33.1499 31.9429 32.8774 32.2971 32.5776C32.6514 32.2778 32.8967 32.0598 33.0057 31.9235C33.1147 31.7873 33.1965 31.7055 33.251 31.6238L31.4796 29.8524L31.0708 30.3702C30.7983 30.6972 30.335 31.0242 29.6809 31.3785C28.9996 31.7328 28.291 31.8963 27.528 31.8963C26.4651 31.8963 25.5658 31.5693 24.8027 30.888C24.0396 30.2066 23.5764 29.4163 23.4401 28.4897H33.6598ZM27.3917 23.0392C28.4 23.0392 29.2176 23.339 29.8989 23.9113C30.553 24.5109 30.9618 25.2467 31.1253 26.1733H23.5491C23.7944 25.2467 24.2304 24.5109 24.9117 23.9113C25.5658 23.339 26.4106 23.0392 27.3917 23.0392Z" fill="#323264"/>
<path d="M46.3695 33.2862C46.3695 34.4853 46.0153 35.4664 45.2794 36.2294C44.5709 36.9652 43.6715 37.3468 42.5542 37.3468C42.0637 37.3468 41.5731 37.265 41.1098 37.1288C40.6465 36.9925 40.2922 36.829 39.9925 36.6382C39.6927 36.4474 39.4202 36.2567 39.1476 36.0114C38.9024 35.7661 38.7389 35.6026 38.6571 35.5209C38.5753 35.4391 38.5208 35.3574 38.4663 35.3028L36.6949 37.0743L36.9129 37.3468C37.0492 37.5375 37.2945 37.7828 37.6215 38.0553C37.9485 38.3006 38.3301 38.5731 38.7661 38.8457C39.2021 39.0909 39.7472 39.309 40.4285 39.4997C41.1098 39.6905 41.8184 39.7995 42.5542 39.7995C44.4074 39.7995 45.9335 39.1727 47.2144 37.9191C48.468 36.6382 49.0948 35.1121 49.0948 33.2589V20.9953H46.3695V22.3579L45.9062 21.9491C45.6065 21.6766 45.1432 21.4041 44.4891 21.1316C43.8351 20.859 43.1265 20.7228 42.4179 20.7228C40.7555 20.7228 39.3384 21.3496 38.112 22.6305C36.8857 23.9113 36.2861 25.4375 36.2861 27.2634C36.2861 29.0893 36.8857 30.6154 38.112 31.8963C39.3384 33.1772 40.7555 33.804 42.4179 33.804C42.8812 33.804 43.3173 33.7495 43.7806 33.6404C44.2166 33.5042 44.5709 33.3679 44.8707 33.2317C45.1704 33.0954 45.443 32.9319 45.6882 32.7411C45.9335 32.5503 46.1243 32.4141 46.1788 32.3596L46.3695 32.1688V33.2862ZM39.0114 27.2634C39.0114 26.1188 39.3657 25.1649 40.1015 24.3746C40.8373 23.5843 41.7094 23.1755 42.6905 23.1755C43.6715 23.1755 44.5436 23.5843 45.2794 24.3746C45.988 25.1649 46.3695 26.1188 46.3695 27.2634C46.3695 28.408 45.988 29.3618 45.2794 30.1521C44.5436 30.9425 43.6715 31.3512 42.6905 31.3512C41.7094 31.3512 40.8373 30.9425 40.1015 30.1521C39.3657 29.3618 39.0114 28.408 39.0114 27.2634Z" fill="#323264"/>
<path d="M63.3195 34.0765V25.6282C63.3195 24.2383 62.8017 23.0665 61.7934 22.1399C60.7851 21.1861 59.4769 20.7228 57.869 20.7228C57.2422 20.7228 56.6154 20.8045 56.0159 20.9681C55.4163 21.1588 54.9258 21.3496 54.5715 21.5676C54.2172 21.7856 53.8629 22.0309 53.5359 22.3307C53.2089 22.6032 53.0181 22.794 52.9091 22.903C52.8273 23.012 52.7456 23.0937 52.6911 23.1755L54.4625 24.9469L54.8168 24.4836C55.0348 24.1838 55.4163 23.9113 55.9886 23.6115C56.5609 23.3118 57.1877 23.1755 57.869 23.1755C58.6594 23.1755 59.3134 23.4208 59.8312 23.8841C60.349 24.3474 60.5943 24.9469 60.5943 25.6282L55.8251 26.4458C54.6533 26.6366 53.6994 27.0999 53.0454 27.8357C52.364 28.5715 52.0098 29.4708 52.0098 30.5337C52.0098 31.542 52.4458 32.4141 53.3179 33.1772C54.2172 33.9675 55.3073 34.349 56.6427 34.349C57.106 34.349 57.542 34.2945 57.9781 34.1582C58.4413 34.0492 58.7956 33.913 59.0954 33.7767C59.3952 33.6405 59.6677 33.4769 59.913 33.2862C60.1582 33.0954 60.3218 32.9591 60.4308 32.9046C60.5125 32.8229 60.567 32.7411 60.5943 32.7139V34.0765H63.3195ZM57.0515 31.8963C56.3429 31.8963 55.7706 31.7328 55.3618 31.4058C54.9258 31.0787 54.735 30.6972 54.735 30.2611C54.735 29.7979 54.8713 29.3891 55.1711 29.0893C55.4708 28.7895 55.8796 28.5715 56.3702 28.4897L60.5943 27.8084V28.0809C60.5943 29.3073 60.2945 30.2339 59.6677 30.9152C59.0409 31.5693 58.1688 31.8963 57.0515 31.8963Z" fill="#323264"/>
<path d="M69.3337 15H66.6084V34.0767H69.3337V15Z" fill="#323264"/>
<path d="M0 43.3298H0.852878V46.3202H2.70078V47.0151H0V43.3298Z" fill="#323264"/>
<path d="M8.26752 46.2254H6.5565L6.23009 47.0151H5.35615L6.99873 43.3298H7.84108L9.48893 47.0151H8.59393L8.26752 46.2254ZM7.99902 45.5779L7.41464 44.1669L6.83026 45.5779H7.99902Z" fill="#323264"/>
<path d="M17.8731 43.3298L16.6675 47.0151H15.7515L14.9407 44.5197L14.1036 47.0151H13.1928L11.982 43.3298H12.8664L13.6982 45.9201L14.5669 43.3298H15.3566L16.199 45.9411L17.0571 43.3298H17.8731Z" fill="#323264"/>
<path d="M26.9457 47.0783C26.5702 47.0783 26.2297 46.9976 25.9244 46.8361C25.6225 46.6712 25.3838 46.4448 25.2084 46.157C25.0364 45.8657 24.9504 45.5375 24.9504 45.1725C24.9504 44.8075 25.0364 44.481 25.2084 44.1932C25.3838 43.9019 25.6225 43.6756 25.9244 43.5141C26.2297 43.3491 26.5719 43.2667 26.951 43.2667C27.2704 43.2667 27.5582 43.3228 27.8144 43.4351C28.0741 43.5474 28.2917 43.7089 28.4672 43.9195L27.9197 44.4249C27.6705 44.1371 27.3616 43.9932 26.9931 43.9932C26.7649 43.9932 26.5614 44.0441 26.3824 44.1459C26.2034 44.2441 26.063 44.3828 25.9612 44.5618C25.8629 44.7408 25.8138 44.9443 25.8138 45.1725C25.8138 45.4006 25.8629 45.6042 25.9612 45.7832C26.063 45.9622 26.2034 46.1026 26.3824 46.2044C26.5614 46.3026 26.7649 46.3518 26.9931 46.3518C27.3616 46.3518 27.6705 46.2061 27.9197 45.9148L28.4672 46.4202C28.2917 46.6343 28.0741 46.7975 27.8144 46.9098C27.5547 47.0221 27.2651 47.0783 26.9457 47.0783Z" fill="#323264"/>
<path d="M33.3831 47.0783C33.0005 47.0783 32.6548 46.9958 32.3459 46.8309C32.0406 46.6659 31.8002 46.4395 31.6247 46.1517C31.4527 45.8604 31.3667 45.534 31.3667 45.1725C31.3667 44.811 31.4527 44.4863 31.6247 44.1985C31.8002 43.9072 32.0406 43.6791 32.3459 43.5141C32.6548 43.3491 33.0005 43.2667 33.3831 43.2667C33.7657 43.2667 34.1096 43.3491 34.415 43.5141C34.7203 43.6791 34.9607 43.9072 35.1362 44.1985C35.3117 44.4863 35.3995 44.811 35.3995 45.1725C35.3995 45.534 35.3117 45.8604 35.1362 46.1517C34.9607 46.4395 34.7203 46.6659 34.415 46.8309C34.1096 46.9958 33.7657 47.0783 33.3831 47.0783ZM33.3831 46.3518C33.6007 46.3518 33.7972 46.3026 33.9727 46.2044C34.1482 46.1026 34.2851 45.9622 34.3834 45.7832C34.4852 45.6042 34.5361 45.4006 34.5361 45.1725C34.5361 44.9443 34.4852 44.7408 34.3834 44.5618C34.2851 44.3828 34.1482 44.2441 33.9727 44.1459C33.7972 44.0441 33.6007 43.9932 33.3831 43.9932C33.1655 43.9932 32.9689 44.0441 32.7934 44.1459C32.618 44.2441 32.4793 44.3828 32.3775 44.5618C32.2793 44.7408 32.2301 44.9443 32.2301 45.1725C32.2301 45.4006 32.2793 45.6042 32.3775 45.7832C32.4793 45.9622 32.618 46.1026 32.7934 46.2044C32.9689 46.3026 33.1655 46.3518 33.3831 46.3518Z" fill="#323264"/>
<path d="M42.0264 47.0151L42.0211 44.8039L40.9366 46.6255H40.5523L39.473 44.8513V47.0151H38.6728V43.3298H39.3782L40.7576 45.62L42.1159 43.3298H42.8161L42.8266 47.0151H42.0264Z" fill="#323264"/>
<path d="M47.9285 43.3298C48.2549 43.3298 48.5374 43.3842 48.7761 43.493C49.0183 43.6018 49.2043 43.7563 49.3342 43.9563C49.464 44.1564 49.529 44.3933 49.529 44.6671C49.529 44.9373 49.464 45.1742 49.3342 45.3778C49.2043 45.5779 49.0183 45.7323 48.7761 45.8411C48.5374 45.9464 48.2549 45.999 47.9285 45.999H47.1862V47.0151H46.3333V43.3298H47.9285ZM47.8811 45.3041C48.1373 45.3041 48.3321 45.2497 48.4655 45.1409C48.5989 45.0286 48.6656 44.8706 48.6656 44.6671C48.6656 44.46 48.5989 44.3021 48.4655 44.1932C48.3321 44.0809 48.1373 44.0248 47.8811 44.0248H47.1862V45.3041H47.8811Z" fill="#323264"/>
<path d="M55.0121 46.2254H53.3011L52.9747 47.0151H52.1008L53.7433 43.3298H54.5857L56.2335 47.0151H55.3385L55.0121 46.2254ZM54.7436 45.5779L54.1592 44.1669L53.5749 45.5779H54.7436Z" fill="#323264"/>
<path d="M62.6281 43.3298V47.0151H61.9279L60.0906 44.7776V47.0151H59.2482V43.3298H59.9537L61.7858 45.5673V43.3298H62.6281Z" fill="#323264"/>
<path d="M67.9013 45.7095V47.0151H67.0485V45.6989L65.6217 43.3298H66.5273L67.5117 44.9672L68.4963 43.3298H69.3333L67.9013 45.7095Z" fill="#323264"/>
<path fill-rule="evenodd" clip-rule="evenodd" d="M81.7283 15H84.9505L76.5557 41H73.3335L81.7283 15Z" fill="#F0145A"/>
<path d="M96.4702 33.36C96.2035 33.6 95.8702 33.7867 95.4702 33.92C95.0835 34.04 94.6769 34.1 94.2502 34.1C93.2635 34.1 92.5035 33.8333 91.9702 33.3C91.4369 32.7667 91.1702 32.0133 91.1702 31.04V24.68H89.2902V23.48H91.1702V21.18H92.5902V23.48H95.7902V24.68H92.5902V30.96C92.5902 31.5867 92.7435 32.0667 93.0502 32.4C93.3702 32.72 93.8235 32.88 94.4102 32.88C94.7035 32.88 94.9835 32.8333 95.2502 32.74C95.5302 32.6467 95.7702 32.5133 95.9702 32.34L96.4702 33.36ZM107.844 29.18H99.0441C99.1241 30.2733 99.5441 31.16 100.304 31.84C101.064 32.5067 102.024 32.84 103.184 32.84C103.837 32.84 104.437 32.7267 104.984 32.5C105.531 32.26 106.004 31.9133 106.404 31.46L107.204 32.38C106.737 32.94 106.151 33.3667 105.444 33.66C104.751 33.9533 103.984 34.1 103.144 34.1C102.064 34.1 101.104 33.8733 100.264 33.42C99.4374 32.9533 98.7908 32.3133 98.3241 31.5C97.8574 30.6867 97.6241 29.7667 97.6241 28.74C97.6241 27.7133 97.8441 26.7933 98.2841 25.98C98.7374 25.1667 99.3508 24.5333 100.124 24.08C100.911 23.6267 101.791 23.4 102.764 23.4C103.737 23.4 104.611 23.6267 105.384 24.08C106.157 24.5333 106.764 25.1667 107.204 25.98C107.644 26.78 107.864 27.7 107.864 28.74L107.844 29.18ZM102.764 24.62C101.751 24.62 100.897 24.9467 100.204 25.6C99.5241 26.24 99.1374 27.08 99.0441 28.12H106.504C106.411 27.08 106.017 26.24 105.324 25.6C104.644 24.9467 103.791 24.62 102.764 24.62ZM114.141 23.4C115.515 23.4 116.568 23.7467 117.301 24.44C118.035 25.12 118.401 26.1333 118.401 27.48V34H117.041V32.36C116.721 32.9067 116.248 33.3333 115.621 33.64C115.008 33.9467 114.275 34.1 113.421 34.1C112.248 34.1 111.315 33.82 110.621 33.26C109.928 32.7 109.581 31.96 109.581 31.04C109.581 30.1467 109.901 29.4267 110.541 28.88C111.195 28.3333 112.228 28.06 113.641 28.06H116.981V27.42C116.981 26.5133 116.728 25.8267 116.221 25.36C115.715 24.88 114.975 24.64 114.001 24.64C113.335 24.64 112.695 24.7533 112.081 24.98C111.468 25.1933 110.941 25.4933 110.501 25.88L109.861 24.82C110.395 24.3667 111.035 24.02 111.781 23.78C112.528 23.5267 113.315 23.4 114.141 23.4ZM113.641 32.98C114.441 32.98 115.128 32.8 115.701 32.44C116.275 32.0667 116.701 31.5333 116.981 30.84V29.12H113.681C111.881 29.12 110.981 29.7467 110.981 31C110.981 31.6133 111.215 32.1 111.681 32.46C112.148 32.8067 112.801 32.98 113.641 32.98ZM135.378 23.4C136.698 23.4 137.732 23.78 138.478 24.54C139.238 25.3 139.618 26.42 139.618 27.9V34H138.198V28.04C138.198 26.9467 137.932 26.1133 137.398 25.54C136.878 24.9667 136.138 24.68 135.178 24.68C134.085 24.68 133.225 25.02 132.598 25.7C131.972 26.3667 131.658 27.2933 131.658 28.48V34H130.238V28.04C130.238 26.9467 129.972 26.1133 129.438 25.54C128.918 24.9667 128.172 24.68 127.198 24.68C126.118 24.68 125.258 25.02 124.618 25.7C123.992 26.3667 123.678 27.2933 123.678 28.48V34H122.258V23.48H123.618V25.4C123.992 24.76 124.512 24.2667 125.178 23.92C125.845 23.5733 126.612 23.4 127.478 23.4C128.358 23.4 129.118 23.5867 129.758 23.96C130.412 24.3333 130.898 24.8867 131.218 25.62C131.605 24.9267 132.158 24.3867 132.878 24C133.612 23.6 134.445 23.4 135.378 23.4Z" fill="#323264"/>
</g>
<defs>
<clipPath id="clip0_110749_2399">
<rect width="141.95" height="57" fill="white"/>
</clipPath>
</defs>
</svg>
